<mxfile host="app.diagrams.net" modified="2022-12-17T11:29:24.814Z" agent="5.0 (Macintosh; Intel Mac OS X 10_15_7) AppleWebKit/605.1.15 (KHTML, like Gecko) Version/16.1 Safari/605.1.15" etag="dds8mcXMgsiu-8H9QHE5" version="20.7.4" type="github">
  <diagram id="C5RBs43oDa-KdzZeNtuy" name="Page-1">
    <mxGraphModel dx="954" dy="675" grid="1" gridSize="10" guides="1" tooltips="1" connect="1" arrows="1" fold="1" page="1" pageScale="1" pageWidth="827" pageHeight="1169" math="0" shadow="0">
      <root>
        <mxCell id="WIyWlLk6GJQsqaUBKTNV-0" />
        <mxCell id="WIyWlLk6GJQsqaUBKTNV-1" parent="WIyWlLk6GJQsqaUBKTNV-0" />
        <mxCell id="0u5-UlOMdhZO0L5M7VkR-6" style="edgeStyle=orthogonalEdgeStyle;rounded=0;orthogonalLoop=1;jettySize=auto;html=1;entryX=0.5;entryY=0;entryDx=0;entryDy=0;" edge="1" parent="WIyWlLk6GJQsqaUBKTNV-1" source="0u5-UlOMdhZO0L5M7VkR-0" target="0u5-UlOMdhZO0L5M7VkR-5">
          <mxGeometry relative="1" as="geometry" />
        </mxCell>
        <mxCell id="0u5-UlOMdhZO0L5M7VkR-0" value="Başla" style="strokeWidth=1;html=1;shape=mxgraph.flowchart.start_2;whiteSpace=wrap;strokeColor=default;" vertex="1" parent="WIyWlLk6GJQsqaUBKTNV-1">
          <mxGeometry x="540" y="60" width="80" height="80" as="geometry" />
        </mxCell>
        <mxCell id="0u5-UlOMdhZO0L5M7VkR-1" value="Dur" style="strokeWidth=1;html=1;shape=mxgraph.flowchart.start_2;whiteSpace=wrap;strokeColor=default;" vertex="1" parent="WIyWlLk6GJQsqaUBKTNV-1">
          <mxGeometry x="40" y="362.5" width="80" height="80" as="geometry" />
        </mxCell>
        <mxCell id="0u5-UlOMdhZO0L5M7VkR-8" style="edgeStyle=orthogonalEdgeStyle;rounded=0;orthogonalLoop=1;jettySize=auto;html=1;entryX=1;entryY=0.5;entryDx=0;entryDy=0;" edge="1" parent="WIyWlLk6GJQsqaUBKTNV-1" source="0u5-UlOMdhZO0L5M7VkR-2" target="0u5-UlOMdhZO0L5M7VkR-4">
          <mxGeometry relative="1" as="geometry" />
        </mxCell>
        <mxCell id="0u5-UlOMdhZO0L5M7VkR-37" style="edgeStyle=orthogonalEdgeStyle;rounded=0;orthogonalLoop=1;jettySize=auto;html=1;exitX=1;exitY=0.5;exitDx=0;exitDy=0;entryX=0.5;entryY=0;entryDx=0;entryDy=0;" edge="1" parent="WIyWlLk6GJQsqaUBKTNV-1" source="0u5-UlOMdhZO0L5M7VkR-2" target="0u5-UlOMdhZO0L5M7VkR-36">
          <mxGeometry relative="1" as="geometry" />
        </mxCell>
        <mxCell id="0u5-UlOMdhZO0L5M7VkR-2" value="i = 0, 0 &amp;lt; i &amp;lt; a, i++" style="shape=hexagon;perimeter=hexagonPerimeter2;whiteSpace=wrap;html=1;size=0.25;strokeWidth=1;" vertex="1" parent="WIyWlLk6GJQsqaUBKTNV-1">
          <mxGeometry x="485" y="250" width="190" height="60" as="geometry" />
        </mxCell>
        <mxCell id="0u5-UlOMdhZO0L5M7VkR-10" style="edgeStyle=orthogonalEdgeStyle;rounded=0;orthogonalLoop=1;jettySize=auto;html=1;exitX=0;exitY=0.5;exitDx=0;exitDy=0;" edge="1" parent="WIyWlLk6GJQsqaUBKTNV-1" source="0u5-UlOMdhZO0L5M7VkR-4" target="0u5-UlOMdhZO0L5M7VkR-9">
          <mxGeometry relative="1" as="geometry" />
        </mxCell>
        <mxCell id="0u5-UlOMdhZO0L5M7VkR-11" value="Evet" style="edgeLabel;html=1;align=center;verticalAlign=middle;resizable=0;points=[];" vertex="1" connectable="0" parent="0u5-UlOMdhZO0L5M7VkR-10">
          <mxGeometry x="-0.35" relative="1" as="geometry">
            <mxPoint as="offset" />
          </mxGeometry>
        </mxCell>
        <mxCell id="0u5-UlOMdhZO0L5M7VkR-13" style="edgeStyle=orthogonalEdgeStyle;rounded=0;orthogonalLoop=1;jettySize=auto;html=1;exitX=0.5;exitY=0;exitDx=0;exitDy=0;entryX=0.375;entryY=0;entryDx=0;entryDy=0;" edge="1" parent="WIyWlLk6GJQsqaUBKTNV-1" source="0u5-UlOMdhZO0L5M7VkR-4" target="0u5-UlOMdhZO0L5M7VkR-2">
          <mxGeometry relative="1" as="geometry">
            <Array as="points">
              <mxPoint x="370" y="200" />
              <mxPoint x="500" y="200" />
              <mxPoint x="500" y="230" />
              <mxPoint x="556" y="230" />
            </Array>
          </mxGeometry>
        </mxCell>
        <mxCell id="0u5-UlOMdhZO0L5M7VkR-14" value="Hayır" style="edgeLabel;html=1;align=center;verticalAlign=middle;resizable=0;points=[];" vertex="1" connectable="0" parent="0u5-UlOMdhZO0L5M7VkR-13">
          <mxGeometry x="-0.4882" y="1" relative="1" as="geometry">
            <mxPoint as="offset" />
          </mxGeometry>
        </mxCell>
        <mxCell id="0u5-UlOMdhZO0L5M7VkR-4" value="a % i = 0" style="rhombus;whiteSpace=wrap;html=1;shadow=0;fontFamily=Helvetica;fontSize=12;align=center;strokeWidth=1;spacing=6;spacingTop=-4;" vertex="1" parent="WIyWlLk6GJQsqaUBKTNV-1">
          <mxGeometry x="310" y="227.5" width="120" height="105" as="geometry" />
        </mxCell>
        <mxCell id="0u5-UlOMdhZO0L5M7VkR-7" style="edgeStyle=orthogonalEdgeStyle;rounded=0;orthogonalLoop=1;jettySize=auto;html=1;entryX=0.5;entryY=0;entryDx=0;entryDy=0;" edge="1" parent="WIyWlLk6GJQsqaUBKTNV-1" source="0u5-UlOMdhZO0L5M7VkR-5" target="0u5-UlOMdhZO0L5M7VkR-2">
          <mxGeometry relative="1" as="geometry" />
        </mxCell>
        <mxCell id="0u5-UlOMdhZO0L5M7VkR-5" value="a" style="shape=parallelogram;perimeter=parallelogramPerimeter;whiteSpace=wrap;html=1;dashed=0;strokeWidth=1;" vertex="1" parent="WIyWlLk6GJQsqaUBKTNV-1">
          <mxGeometry x="520" y="170" width="120" height="50" as="geometry" />
        </mxCell>
        <mxCell id="0u5-UlOMdhZO0L5M7VkR-12" style="edgeStyle=orthogonalEdgeStyle;rounded=0;orthogonalLoop=1;jettySize=auto;html=1;entryX=0.5;entryY=0;entryDx=0;entryDy=0;entryPerimeter=0;" edge="1" parent="WIyWlLk6GJQsqaUBKTNV-1" source="0u5-UlOMdhZO0L5M7VkR-9" target="0u5-UlOMdhZO0L5M7VkR-1">
          <mxGeometry relative="1" as="geometry" />
        </mxCell>
        <mxCell id="0u5-UlOMdhZO0L5M7VkR-9" value="a asal değil" style="shape=document;whiteSpace=wrap;html=1;boundedLbl=1;" vertex="1" parent="WIyWlLk6GJQsqaUBKTNV-1">
          <mxGeometry x="160" y="245" width="110" height="70" as="geometry" />
        </mxCell>
        <mxCell id="0u5-UlOMdhZO0L5M7VkR-18" style="edgeStyle=orthogonalEdgeStyle;rounded=0;orthogonalLoop=1;jettySize=auto;html=1;entryX=1;entryY=0.5;entryDx=0;entryDy=0;" edge="1" parent="WIyWlLk6GJQsqaUBKTNV-1" source="0u5-UlOMdhZO0L5M7VkR-15" target="0u5-UlOMdhZO0L5M7VkR-17">
          <mxGeometry relative="1" as="geometry" />
        </mxCell>
        <mxCell id="0u5-UlOMdhZO0L5M7VkR-40" style="edgeStyle=orthogonalEdgeStyle;rounded=0;orthogonalLoop=1;jettySize=auto;html=1;entryX=0.5;entryY=0;entryDx=0;entryDy=0;" edge="1" parent="WIyWlLk6GJQsqaUBKTNV-1" source="0u5-UlOMdhZO0L5M7VkR-15" target="0u5-UlOMdhZO0L5M7VkR-39">
          <mxGeometry relative="1" as="geometry" />
        </mxCell>
        <mxCell id="0u5-UlOMdhZO0L5M7VkR-15" value="i = 0, 0 &amp;lt; i &amp;lt; (a + 2), i++" style="shape=hexagon;perimeter=hexagonPerimeter2;whiteSpace=wrap;html=1;size=0.25;strokeWidth=1;" vertex="1" parent="WIyWlLk6GJQsqaUBKTNV-1">
          <mxGeometry x="485" y="372.5" width="190" height="60" as="geometry" />
        </mxCell>
        <mxCell id="0u5-UlOMdhZO0L5M7VkR-20" style="edgeStyle=orthogonalEdgeStyle;rounded=0;orthogonalLoop=1;jettySize=auto;html=1;entryX=1;entryY=0.5;entryDx=0;entryDy=0;" edge="1" parent="WIyWlLk6GJQsqaUBKTNV-1" source="0u5-UlOMdhZO0L5M7VkR-17" target="0u5-UlOMdhZO0L5M7VkR-19">
          <mxGeometry relative="1" as="geometry" />
        </mxCell>
        <mxCell id="0u5-UlOMdhZO0L5M7VkR-25" value="Evet" style="edgeLabel;html=1;align=center;verticalAlign=middle;resizable=0;points=[];" vertex="1" connectable="0" parent="0u5-UlOMdhZO0L5M7VkR-20">
          <mxGeometry x="-0.1" y="2" relative="1" as="geometry">
            <mxPoint as="offset" />
          </mxGeometry>
        </mxCell>
        <mxCell id="0u5-UlOMdhZO0L5M7VkR-23" style="edgeStyle=orthogonalEdgeStyle;rounded=0;orthogonalLoop=1;jettySize=auto;html=1;exitX=1;exitY=0;exitDx=0;exitDy=0;entryX=0.375;entryY=0;entryDx=0;entryDy=0;" edge="1" parent="WIyWlLk6GJQsqaUBKTNV-1" source="0u5-UlOMdhZO0L5M7VkR-17" target="0u5-UlOMdhZO0L5M7VkR-15">
          <mxGeometry relative="1" as="geometry" />
        </mxCell>
        <mxCell id="0u5-UlOMdhZO0L5M7VkR-24" value="Hayır" style="edgeLabel;html=1;align=center;verticalAlign=middle;resizable=0;points=[];" vertex="1" connectable="0" parent="0u5-UlOMdhZO0L5M7VkR-23">
          <mxGeometry x="-0.6818" y="3" relative="1" as="geometry">
            <mxPoint as="offset" />
          </mxGeometry>
        </mxCell>
        <mxCell id="0u5-UlOMdhZO0L5M7VkR-17" value="(a + 2) % i = 0" style="rhombus;whiteSpace=wrap;html=1;shadow=0;fontFamily=Helvetica;fontSize=12;align=center;strokeWidth=1;spacing=6;spacingTop=-4;" vertex="1" parent="WIyWlLk6GJQsqaUBKTNV-1">
          <mxGeometry x="310" y="350" width="120" height="105" as="geometry" />
        </mxCell>
        <mxCell id="0u5-UlOMdhZO0L5M7VkR-21" style="edgeStyle=orthogonalEdgeStyle;rounded=0;orthogonalLoop=1;jettySize=auto;html=1;entryX=1;entryY=0.5;entryDx=0;entryDy=0;entryPerimeter=0;" edge="1" parent="WIyWlLk6GJQsqaUBKTNV-1" source="0u5-UlOMdhZO0L5M7VkR-19" target="0u5-UlOMdhZO0L5M7VkR-1">
          <mxGeometry relative="1" as="geometry" />
        </mxCell>
        <mxCell id="0u5-UlOMdhZO0L5M7VkR-19" value="a + 2 asal değil" style="shape=document;whiteSpace=wrap;html=1;boundedLbl=1;" vertex="1" parent="WIyWlLk6GJQsqaUBKTNV-1">
          <mxGeometry x="160" y="367.5" width="110" height="70" as="geometry" />
        </mxCell>
        <mxCell id="0u5-UlOMdhZO0L5M7VkR-28" style="edgeStyle=orthogonalEdgeStyle;rounded=0;orthogonalLoop=1;jettySize=auto;html=1;entryX=1;entryY=0.5;entryDx=0;entryDy=0;" edge="1" parent="WIyWlLk6GJQsqaUBKTNV-1" source="0u5-UlOMdhZO0L5M7VkR-22" target="0u5-UlOMdhZO0L5M7VkR-27">
          <mxGeometry relative="1" as="geometry" />
        </mxCell>
        <mxCell id="0u5-UlOMdhZO0L5M7VkR-42" style="edgeStyle=orthogonalEdgeStyle;rounded=0;orthogonalLoop=1;jettySize=auto;html=1;entryX=1;entryY=0.5;entryDx=0;entryDy=0;exitX=0.5;exitY=1;exitDx=0;exitDy=0;" edge="1" parent="WIyWlLk6GJQsqaUBKTNV-1" source="0u5-UlOMdhZO0L5M7VkR-22" target="0u5-UlOMdhZO0L5M7VkR-43">
          <mxGeometry relative="1" as="geometry">
            <mxPoint x="580" y="590" as="targetPoint" />
          </mxGeometry>
        </mxCell>
        <mxCell id="0u5-UlOMdhZO0L5M7VkR-22" value="i = 0, 0 &amp;lt; i &amp;lt; (a + 6), i++" style="shape=hexagon;perimeter=hexagonPerimeter2;whiteSpace=wrap;html=1;size=0.25;strokeWidth=1;" vertex="1" parent="WIyWlLk6GJQsqaUBKTNV-1">
          <mxGeometry x="485" y="492.5" width="190" height="60" as="geometry" />
        </mxCell>
        <mxCell id="0u5-UlOMdhZO0L5M7VkR-29" style="edgeStyle=orthogonalEdgeStyle;rounded=0;orthogonalLoop=1;jettySize=auto;html=1;exitX=1;exitY=0;exitDx=0;exitDy=0;entryX=0.375;entryY=0;entryDx=0;entryDy=0;" edge="1" parent="WIyWlLk6GJQsqaUBKTNV-1" source="0u5-UlOMdhZO0L5M7VkR-27" target="0u5-UlOMdhZO0L5M7VkR-22">
          <mxGeometry relative="1" as="geometry" />
        </mxCell>
        <mxCell id="0u5-UlOMdhZO0L5M7VkR-30" value="Hayır" style="edgeLabel;html=1;align=center;verticalAlign=middle;resizable=0;points=[];" vertex="1" connectable="0" parent="0u5-UlOMdhZO0L5M7VkR-29">
          <mxGeometry x="-0.6328" y="-1" relative="1" as="geometry">
            <mxPoint x="-15" y="-5" as="offset" />
          </mxGeometry>
        </mxCell>
        <mxCell id="0u5-UlOMdhZO0L5M7VkR-32" style="edgeStyle=orthogonalEdgeStyle;rounded=0;orthogonalLoop=1;jettySize=auto;html=1;exitX=0;exitY=0.5;exitDx=0;exitDy=0;entryX=1;entryY=0.5;entryDx=0;entryDy=0;" edge="1" parent="WIyWlLk6GJQsqaUBKTNV-1" source="0u5-UlOMdhZO0L5M7VkR-27" target="0u5-UlOMdhZO0L5M7VkR-31">
          <mxGeometry relative="1" as="geometry" />
        </mxCell>
        <mxCell id="0u5-UlOMdhZO0L5M7VkR-34" value="" style="edgeStyle=orthogonalEdgeStyle;rounded=0;orthogonalLoop=1;jettySize=auto;html=1;" edge="1" parent="WIyWlLk6GJQsqaUBKTNV-1" source="0u5-UlOMdhZO0L5M7VkR-27" target="0u5-UlOMdhZO0L5M7VkR-31">
          <mxGeometry relative="1" as="geometry" />
        </mxCell>
        <mxCell id="0u5-UlOMdhZO0L5M7VkR-35" value="Evet" style="edgeLabel;html=1;align=center;verticalAlign=middle;resizable=0;points=[];" vertex="1" connectable="0" parent="0u5-UlOMdhZO0L5M7VkR-34">
          <mxGeometry x="0.05" y="-2" relative="1" as="geometry">
            <mxPoint x="11" as="offset" />
          </mxGeometry>
        </mxCell>
        <mxCell id="0u5-UlOMdhZO0L5M7VkR-27" value="(a + 6) % i = 0" style="rhombus;whiteSpace=wrap;html=1;shadow=0;fontFamily=Helvetica;fontSize=12;align=center;strokeWidth=1;spacing=6;spacingTop=-4;" vertex="1" parent="WIyWlLk6GJQsqaUBKTNV-1">
          <mxGeometry x="310" y="470" width="120" height="105" as="geometry" />
        </mxCell>
        <mxCell id="0u5-UlOMdhZO0L5M7VkR-33" style="edgeStyle=orthogonalEdgeStyle;rounded=0;orthogonalLoop=1;jettySize=auto;html=1;entryX=0.5;entryY=1;entryDx=0;entryDy=0;entryPerimeter=0;" edge="1" parent="WIyWlLk6GJQsqaUBKTNV-1" source="0u5-UlOMdhZO0L5M7VkR-31" target="0u5-UlOMdhZO0L5M7VkR-1">
          <mxGeometry relative="1" as="geometry" />
        </mxCell>
        <mxCell id="0u5-UlOMdhZO0L5M7VkR-31" value="a + 6 asal değil" style="shape=document;whiteSpace=wrap;html=1;boundedLbl=1;" vertex="1" parent="WIyWlLk6GJQsqaUBKTNV-1">
          <mxGeometry x="160" y="487.5" width="110" height="70" as="geometry" />
        </mxCell>
        <mxCell id="0u5-UlOMdhZO0L5M7VkR-38" style="edgeStyle=orthogonalEdgeStyle;rounded=0;orthogonalLoop=1;jettySize=auto;html=1;entryX=0.625;entryY=0;entryDx=0;entryDy=0;" edge="1" parent="WIyWlLk6GJQsqaUBKTNV-1" source="0u5-UlOMdhZO0L5M7VkR-36" target="0u5-UlOMdhZO0L5M7VkR-15">
          <mxGeometry relative="1" as="geometry" />
        </mxCell>
        <mxCell id="0u5-UlOMdhZO0L5M7VkR-36" value="a asal" style="shape=document;whiteSpace=wrap;html=1;boundedLbl=1;" vertex="1" parent="WIyWlLk6GJQsqaUBKTNV-1">
          <mxGeometry x="710" y="310" width="110" height="70" as="geometry" />
        </mxCell>
        <mxCell id="0u5-UlOMdhZO0L5M7VkR-41" style="edgeStyle=orthogonalEdgeStyle;rounded=0;orthogonalLoop=1;jettySize=auto;html=1;entryX=0.625;entryY=0;entryDx=0;entryDy=0;" edge="1" parent="WIyWlLk6GJQsqaUBKTNV-1" source="0u5-UlOMdhZO0L5M7VkR-39" target="0u5-UlOMdhZO0L5M7VkR-22">
          <mxGeometry relative="1" as="geometry" />
        </mxCell>
        <mxCell id="0u5-UlOMdhZO0L5M7VkR-39" value="a + 2 asal" style="shape=document;whiteSpace=wrap;html=1;boundedLbl=1;" vertex="1" parent="WIyWlLk6GJQsqaUBKTNV-1">
          <mxGeometry x="710" y="432.5" width="110" height="70" as="geometry" />
        </mxCell>
        <mxCell id="0u5-UlOMdhZO0L5M7VkR-46" style="edgeStyle=orthogonalEdgeStyle;rounded=0;orthogonalLoop=1;jettySize=auto;html=1;entryX=1;entryY=0.5;entryDx=0;entryDy=0;" edge="1" parent="WIyWlLk6GJQsqaUBKTNV-1" source="0u5-UlOMdhZO0L5M7VkR-43" target="0u5-UlOMdhZO0L5M7VkR-45">
          <mxGeometry relative="1" as="geometry" />
        </mxCell>
        <mxCell id="0u5-UlOMdhZO0L5M7VkR-43" value="a + 6 asal" style="shape=document;whiteSpace=wrap;html=1;boundedLbl=1;" vertex="1" parent="WIyWlLk6GJQsqaUBKTNV-1">
          <mxGeometry x="320" y="585" width="110" height="70" as="geometry" />
        </mxCell>
        <mxCell id="0u5-UlOMdhZO0L5M7VkR-47" style="edgeStyle=orthogonalEdgeStyle;rounded=0;orthogonalLoop=1;jettySize=auto;html=1;entryX=0;entryY=0.5;entryDx=0;entryDy=0;entryPerimeter=0;exitX=0;exitY=0.5;exitDx=0;exitDy=0;" edge="1" parent="WIyWlLk6GJQsqaUBKTNV-1" source="0u5-UlOMdhZO0L5M7VkR-45" target="0u5-UlOMdhZO0L5M7VkR-1">
          <mxGeometry relative="1" as="geometry">
            <Array as="points">
              <mxPoint x="20" y="620" />
              <mxPoint x="20" y="403" />
            </Array>
          </mxGeometry>
        </mxCell>
        <mxCell id="0u5-UlOMdhZO0L5M7VkR-45" value="a asal üçüz" style="shape=document;whiteSpace=wrap;html=1;boundedLbl=1;" vertex="1" parent="WIyWlLk6GJQsqaUBKTNV-1">
          <mxGeometry x="160" y="585" width="110" height="70" as="geometry" />
        </mxCell>
      </root>
    </mxGraphModel>
  </diagram>
</mxfile>
